<svg id="Capa_1" enable-background="new 0 0 512 512" height="512" viewBox="0 0 512 512" width="512" xmlns="http://www.w3.org/2000/svg"><g><g><path clip-rule="evenodd" d="m188.903 309.078 67.083 70.186 67.111-70.186c-1.333-.992-1.078-2.75-1.078-7.512v-35.093l-132.039.283v34.809c.001 4.764.228 6.521-1.077 7.513z" fill="#fed1a3" fill-rule="evenodd"/></g><g><path clip-rule="evenodd" d="m264.637 405.882 21.217 58.706c.964 2.665.964 4.337-.539 6.917l-19.402 32.995h102.596 88.584c8.509 0 11.176-2.069 10.041-9.808l-14.324-98.447c-8.141-55.928-62.176-70.696-107.843-81.581-31.315 6.265-57.325 34.895-61.353 56.268z" fill="#f8f2f0" fill-rule="evenodd"/></g><g><path clip-rule="evenodd" d="m59.162 396.244-14.324 98.447c-1.135 7.739 1.56 9.808 10.041 9.808h88.215 102.993l-19.43-32.995c-1.503-2.58-1.503-4.252-.539-6.917l21.245-58.706-19.004-34.951-61.325-56.268c-45.668 10.886-99.731 25.654-107.872 81.582z" fill="#f8f2f0" fill-rule="evenodd"/></g><g><path clip-rule="evenodd" d="m215.906 464.587c-.964 2.665-.964 4.337.539 6.917l19.43 32.995h40.25l19.402-32.995c1.503-2.58 1.532-4.252.567-6.917l-21.245-58.706-17.643-8.362-20.082 8.362z" fill="#8ac9fe" fill-rule="evenodd"/></g><g><path clip-rule="evenodd" d="m335.578 336.858c39.285 10.998 78.202 28.998 85.01 75.742l13.36 91.899h23.146c8.509 0 11.176-2.069 10.041-9.808l-14.324-98.447c-8.141-55.928-62.176-70.696-107.843-81.581z" fill="#eee1dc" fill-rule="evenodd"/></g><g><path clip-rule="evenodd" d="m218.147 370.93 18.976 34.952h37.725l19.005-34.952-9.304-19.247-28.563-3.061-30.095 4.535z" fill="#22a6fe" fill-rule="evenodd"/></g><g><path clip-rule="evenodd" d="m274.622 464.644c.964 2.665.936 4.337-.567 6.888l-19.118 32.967h5.9 15.289l19.402-32.995c1.503-2.58 1.532-4.252.567-6.917l-21.245-58.706h-21.36z" fill="#22a6fe" fill-rule="evenodd"/></g><g><path clip-rule="evenodd" d="m268.551 382.779-12.566 23.102h18.863l19.004-34.951-8.878-5.216-10.24-6.038-18.749-11.055-16.679 9.836 28.535 18.624c3.263 1.9 2.441 2.523.71 5.698z" fill="#0182fc" fill-rule="evenodd"/></g><g><path clip-rule="evenodd" d="m167.034 314.663 22.777 53.943c4.368 10.29 11.516 11.254 20.962 6.661l7.375-4.337 37.839-22.309-67.083-39.543c-1.106.85-3.29 1.134-7.573 2.183-4.625 1.134-9.419 2.239-14.297 3.402z" fill="#eee1dc" fill-rule="evenodd"/></g><g><path clip-rule="evenodd" d="m255.986 348.622 37.867 22.309 7.346 4.337c9.446 4.592 16.622 3.628 20.962-6.661l22.805-53.943c-4.907-1.162-9.701-2.268-14.324-3.402-4.283-1.049-6.467-1.332-7.545-2.183z" fill="#eee1dc" fill-rule="evenodd"/></g><g><path clip-rule="evenodd" d="m298.42 327.617c11.686 2.835 24.451 5.669 37.158 9.241l9.389-22.195c-4.907-1.162-9.701-2.268-14.324-3.402-4.283-1.049-6.467-1.332-7.545-2.183l-29.556 17.405c1.219.312 2.779.652 4.878 1.134z" fill="#cdbeb9" fill-rule="evenodd"/></g><g><path clip-rule="evenodd" d="m255.986 287.025c77.039 0 139.867-62.787 139.867-139.748 0-76.99-62.828-139.777-139.867-139.777s-139.867 62.787-139.867 139.777c0 76.96 62.828 139.748 139.867 139.748z" fill="#fdb440" fill-rule="evenodd"/></g><g><path clip-rule="evenodd" d="m174.181 81.768c-3.205 3.175-3.205 8.419 0 11.622l6.07 6.066c-5.389 8.504-9.389 17.972-11.658 28.091h-8.595c-4.51 0-8.197 3.685-8.197 8.22v22.989c0 4.535 3.687 8.221 8.197 8.221h8.595c2.269 10.12 6.269 19.587 11.658 28.091l-6.07 6.095c-3.205 3.175-3.205 8.419 0 11.594l16.253 16.271c3.205 3.203 8.424 3.203 11.63 0l6.098-6.066c8.509 5.386 17.983 9.354 28.11 11.65v8.561c0 4.535 3.687 8.22 8.226 8.22h23.004c4.51 0 8.226-3.685 8.226-8.22v-8.561c10.126-2.296 19.6-6.265 28.11-11.65l6.07 6.066c3.205 3.203 8.424 3.203 11.63 0l16.281-16.271c3.177-3.175 3.177-8.419 0-11.594l-6.098-6.095c5.389-8.504 9.389-17.972 11.658-28.091h8.595c4.51 0 8.226-3.685 8.226-8.221v-22.989c0-4.535-3.716-8.22-8.226-8.22h-8.595c-2.269-10.12-6.269-19.587-11.658-28.091l6.098-6.066c3.177-3.203 3.177-8.447 0-11.622l-16.281-16.271c-3.205-3.203-8.424-3.203-11.63 0l-6.07 6.066c-8.509-5.386-17.983-9.354-28.11-11.65v-8.561c0-4.535-3.716-8.22-8.226-8.22h-23.004c-4.538 0-8.226 3.685-8.226 8.22v8.561c-10.126 2.296-19.6 6.265-28.11 11.65l-6.098-6.066c-3.205-3.203-8.424-3.203-11.63 0zm44.363 102.926c-20.706-20.665-20.706-54.198 0-74.863 10.325-10.346 23.883-15.506 37.442-15.506 13.558 0 27.117 5.159 37.47 15.506 20.678 20.665 20.678 54.198 0 74.863-10.353 10.346-23.912 15.506-37.47 15.506-13.559-.001-27.117-5.16-37.442-15.506z" fill="#6d80aa" fill-rule="evenodd"/></g><g><path clip-rule="evenodd" d="m228.585 10.165c7.971 9.524 15.033 20.608 20.933 32.967h17.983c4.51 0 8.226 3.685 8.226 8.22v8.561c10.126 2.296 19.6 6.265 28.11 11.65l6.07-6.066c3.205-3.203 8.424-3.203 11.63 0l16.281 16.271c3.177 3.175 3.177 8.419 0 11.622l-6.098 6.066c5.389 8.504 9.389 17.972 11.658 28.091h8.595c4.51 0 8.226 3.685 8.226 8.22v22.989c0 4.535-3.716 8.221-8.226 8.221h-8.595c-2.269 10.12-6.269 19.587-11.658 28.091l6.098 6.095c3.177 3.175 3.177 8.419 0 11.594l-16.281 16.271c-3.205 3.203-8.424 3.203-11.63 0l-6.07-6.066c-8.509 5.386-17.983 9.354-28.11 11.65v8.561c0 4.535-3.716 8.22-8.226 8.22h-23.004c-2.326 0-4.425-.964-5.9-2.494-4.255 6.463-8.85 12.416-13.757 17.773-4.397 4.819-9.048 9.128-13.899 12.954 14.126 4.791 29.301 7.398 45.043 7.398 23.883 0 46.348-5.981 66.033-16.498 43.937-23.584 73.834-69.931 73.834-123.251 0-77.216-62.63-139.777-139.867-139.777-9.359.002-18.52.909-27.399 2.667z" fill="#fe9900" fill-rule="evenodd"/></g><g><path clip-rule="evenodd" d="m265.97 95.261c2.298 13.096 3.546 26.844 3.546 41.017 0 22.621-3.148 44.136-8.85 63.723 11.97-1.049 23.628-6.151 32.79-15.307 20.678-20.665 20.678-54.198 0-74.863-7.8-7.795-17.416-12.643-27.486-14.57z" fill="#fe9900" fill-rule="evenodd"/></g><g><path clip-rule="evenodd" d="m249.519 43.132c7.46 15.591 13.076 33.194 16.452 52.129 10.07 1.928 19.685 6.775 27.486 14.57 20.678 20.665 20.678 54.198 0 74.863-9.162 9.156-20.82 14.258-32.79 15.307-5.304 18.255-12.821 34.781-22.068 48.898 1.475 1.531 3.574 2.494 5.9 2.494h23.004c4.51 0 8.226-3.685 8.226-8.22v-8.561c10.126-2.296 19.6-6.265 28.11-11.65l6.07 6.066c3.205 3.203 8.424 3.203 11.63 0l16.281-16.271c3.177-3.175 3.177-8.419 0-11.594l-6.098-6.095c5.389-8.504 9.389-17.972 11.658-28.091h8.595c4.51 0 8.226-3.685 8.226-8.221v-22.989c0-4.535-3.716-8.22-8.226-8.22h-8.595c-2.269-10.12-6.269-19.587-11.658-28.091l6.098-6.066c3.177-3.203 3.177-8.447 0-11.622l-16.281-16.271c-3.205-3.203-8.424-3.203-11.63 0l-6.07 6.066c-8.509-5.386-17.983-9.354-28.11-11.65v-8.561c0-4.535-3.716-8.22-8.226-8.22h-17.984z" fill="#49679b" fill-rule="evenodd"/></g><g><path clip-rule="evenodd" d="m322.019 301.566v-31.039c-19.685 10.517-42.15 16.498-66.033 16.498-15.743 0-30.918-2.608-45.043-7.398-7.261-2.466-14.296-5.528-20.962-9.099v24.803c44.987 20.239 68.983 16.951 106.397 4.876 5.077-1.644 4.113 1.956 4.113 7.512v14.684l22.607-13.323c-1.334-.994-1.079-2.751-1.079-7.514z" fill="#ffbc85" fill-rule="evenodd"/></g><g><path d="m283.227 243.173v-2.76c6.768-1.977 13.265-4.667 19.415-8.042l1.964 1.963c6.131 6.125 16.103 6.124 22.232 0l16.281-16.271c2.954-2.952 4.581-6.895 4.581-11.102s-1.627-8.149-4.581-11.102l-1.985-1.984c3.396-6.174 6.091-12.664 8.053-19.397h2.785c8.671 0 15.726-7.052 15.726-15.72v-22.989c0-8.668-7.055-15.72-15.726-15.72h-2.785c-1.961-6.729-4.652-13.215-8.046-19.385l2.002-1.991c6.093-6.144 6.082-16.106-.023-22.208l-16.281-16.27c-6.128-6.125-16.102-6.125-22.233 0l-1.963 1.961c-6.15-3.374-12.647-6.065-19.415-8.042v-2.76c0-8.668-7.055-15.72-15.726-15.72h-23.004c-8.671 0-15.726 7.052-15.726 15.72v2.76c-6.772 1.979-13.273 4.672-19.427 8.049l-1.979-1.969c-6.129-6.126-16.103-6.126-22.237.004l-16.225 16.243c-2.974 2.946-4.617 6.886-4.626 11.094-.009 4.223 1.625 8.187 4.603 11.162l1.957 1.956c-3.396 6.172-6.089 12.662-8.052 19.397h-2.785c-8.656 0-15.698 7.052-15.698 15.72v22.989c0 8.668 7.042 15.72 15.698 15.72h2.785c1.964 6.739 4.661 13.233 8.059 19.409l-1.94 1.948c-2.983 2.955-4.626 6.906-4.626 11.125s1.643 8.17 4.598 11.097l16.258 16.275c6.13 6.125 16.103 6.126 22.22.013l1.992-1.981c6.154 3.377 12.654 6.071 19.427 8.049v2.76c0 8.668 7.055 15.72 15.726 15.72h23.004c8.669-.001 15.723-7.053 15.723-15.721zm-39.455 0v-8.561c0-3.503-2.425-6.54-5.842-7.314-9.196-2.085-17.862-5.676-25.756-10.673-1.234-.782-2.626-1.163-4.009-1.163-1.931 0-3.845.744-5.291 2.183l-6.111 6.079c-.278.277-.748.278-1.021.004l-16.282-16.299c-.15-.149-.182-.337-.182-.468s.032-.319.218-.504l6.07-6.095c2.473-2.483 2.897-6.347 1.021-9.308-5.04-7.951-8.631-16.603-10.675-25.717-.768-3.425-3.809-5.859-7.318-5.859h-8.594c-.372 0-.698-.336-.698-.72v-22.989c0-.384.326-.72.698-.72h8.594c3.51 0 6.55-2.434 7.318-5.859 2.044-9.114 5.635-17.767 10.675-25.718 1.879-2.966 1.45-6.838-1.034-9.32l-6.07-6.065c-.17-.17-.206-.376-.206-.519 0-.192.062-.351.21-.498l16.249-16.267c.277-.278.747-.279 1.039.013l6.099 6.066c2.482 2.47 6.343 2.893 9.3 1.02 7.895-4.997 16.561-8.588 25.757-10.673 3.417-.775 5.841-3.812 5.841-7.314v-8.561c0-.391.333-.72.726-.72h23.004c.38 0 .726.343.726.72v8.561c0 3.503 2.425 6.54 5.842 7.314 9.195 2.085 17.862 5.676 25.758 10.673 2.964 1.875 6.833 1.447 9.313-1.033l6.068-6.065c.279-.277.75-.279 1.027 0l16.281 16.271c.255.254.243.767.013 1l-6.098 6.066c-2.494 2.48-2.929 6.36-1.046 9.332 5.04 7.954 8.632 16.607 10.674 25.718.768 3.425 3.809 5.859 7.318 5.859h8.595c.38 0 .726.343.726.72v22.989c0 .377-.346.72-.726.72h-8.595c-3.51 0-6.551 2.435-7.318 5.859-2.042 9.11-5.634 17.763-10.674 25.717-1.879 2.965-1.45 6.837 1.033 9.319l6.098 6.095c.152.152.185.351.185.492s-.032.34-.185.492l-16.281 16.271c-.276.277-.748.278-1.026 0l-6.069-6.066c-2.479-2.478-6.347-2.909-9.313-1.033-7.895 4.998-16.561 8.588-25.758 10.673-3.417.775-5.842 3.811-5.842 7.314v8.561c0 .377-.346.72-.726.72h-23.004c-.393 0-.726-.329-.726-.72z"/><path d="m316.465 147.262c0-16.148-6.289-31.326-17.707-42.737-11.422-11.414-26.612-17.7-42.772-17.7-16.173 0-31.355 6.289-42.75 17.707-2.926 2.932-2.921 7.681.011 10.606 2.931 2.926 7.68 2.921 10.606-.011 8.561-8.579 19.973-13.303 32.133-13.303 12.155 0 23.58 4.727 32.168 13.311 8.583 8.577 13.311 19.987 13.311 32.126 0 12.14-4.728 23.549-13.311 32.126-8.589 8.583-20.014 13.311-32.168 13.311-12.16 0-23.572-4.725-32.14-13.311-10.779-10.772-15.43-26.149-12.441-41.133.811-4.062-1.826-8.012-5.888-8.822-4.06-.813-8.012 1.826-8.822 5.888-3.973 19.913 2.213 40.353 16.54 54.671 11.395 11.419 26.578 17.707 42.75 17.707 16.16 0 31.349-6.286 42.772-17.7 11.419-11.41 17.708-26.588 17.708-42.736z"/><path d="m77.809 147.277c0-4.142-3.358-7.5-7.5-7.5h-49.809c-4.142 0-7.5 3.358-7.5 7.5s3.358 7.5 7.5 7.5h49.809c4.143 0 7.5-3.358 7.5-7.5z"/><path d="m77.603 73.211c1.456 1.409 3.336 2.11 5.214 2.11 1.961 0 3.919-.764 5.391-2.285 2.88-2.977 2.802-7.725-.174-10.605l-34.89-33.76c-2.976-2.88-7.725-2.802-10.605.174-2.88 2.977-2.802 7.725.174 10.605z"/><path d="m77.603 221.314-34.889 33.761c-2.977 2.88-3.055 7.628-.174 10.605 1.471 1.521 3.43 2.285 5.391 2.285 1.878 0 3.758-.701 5.214-2.11l34.889-33.761c2.977-2.88 3.055-7.628.174-10.605-2.881-2.978-7.629-3.056-10.605-.175z"/><path d="m491.5 139.777h-49.809c-4.143 0-7.5 3.358-7.5 7.5s3.357 7.5 7.5 7.5h49.809c4.143 0 7.5-3.358 7.5-7.5 0-4.143-3.358-7.5-7.5-7.5z"/><path d="m429.155 75.321c1.878 0 3.759-.701 5.215-2.11l34.889-33.761c2.977-2.88 3.055-7.628.174-10.605s-7.629-3.055-10.605-.174l-34.889 33.761c-2.977 2.88-3.055 7.628-.174 10.605 1.471 1.52 3.429 2.284 5.39 2.284z"/><path d="m458.827 265.853c1.457 1.409 3.337 2.11 5.215 2.11 1.961 0 3.92-.764 5.391-2.285 2.881-2.977 2.803-7.725-.174-10.605l-34.889-33.761c-2.979-2.88-7.727-2.802-10.605.174-2.881 2.977-2.803 7.725.174 10.605z"/><path d="m460.232 395.166c-4.105-28.268-19.125-49.361-45.916-64.485-20.679-11.673-45.26-17.981-67.608-23.305-.105-.025-.209-.055-.314-.075-1.643-.391-3.276-.778-4.892-1.161-3.087-.73-6.124-1.449-9.088-2.167-1.09-.265-2.048-.484-2.89-.677-.005-.001-.009-.002-.014-.003.004-.408.007-19.645.008-28.446 44.098-25.476 73.834-73.118 73.834-127.571.001-81.208-66.107-147.276-147.366-147.276s-147.367 66.068-147.367 147.277c0 54.465 29.749 102.116 73.863 127.588.001 8.807.004 28.018.008 28.425-.009.002-.018.004-.027.006-.845.192-8.95 2.124-12.06 2.859-15.694 3.711-33.481 7.916-49.993 14.098-3.879 1.453-5.846 5.774-4.394 9.654 1.128 3.013 3.987 4.872 7.025 4.872.874 0 1.762-.154 2.629-.478 11.986-4.488 24.517-7.833 36.931-10.858l20.307 48.094c2.759 6.5 6.784 10.779 11.961 12.718 5.538 2.073 11.813 1.341 19.184-2.242.18-.087.356-.182.528-.284l.679-.4 13.666 25.171-20.07 55.535c-1.775 4.903-1.442 8.865 1.128 13.274l12.772 21.69h-72.161v-68.582c0-4.142-3.358-7.5-7.5-7.5s-7.5 3.358-7.5 7.5v68.582h-80.716c-1.245 0-2.13-.054-2.75-.121.025-.305.066-.671.13-1.107l14.324-98.442c3.154-21.575 13.986-38.05 33.116-50.367 3.483-2.243 4.488-6.884 2.246-10.366-2.242-3.483-6.883-4.488-10.366-2.246-22.99 14.802-36.021 34.693-39.839 60.814l-14.324 98.439c-.547 3.737-.851 9.195 2.82 13.444 3.771 4.364 9.518 4.952 14.642 4.952h180.988c.005 0 .01.001.015.001s.01-.001.015-.001h40.206c.005 0 .01.001.015.001s.01-.001.015-.001h180.96c5.129 0 10.881-.588 14.647-4.948 3.668-4.244 3.362-9.708 2.815-13.44zm-125.631-75.246-19.35 45.771c-1.048 2.483-2.252 4.086-3.392 4.515-1.368.514-3.955-.055-7.125-1.561l-33.971-20.023 53.114-31.299c.721.206 1.476.406 2.303.595.783.18 1.675.383 2.697.632 1.88.456 3.795.912 5.724 1.37zm-137.118-37.509c17.944 7.786 37.726 12.113 58.503 12.113 20.789 0 40.582-4.333 58.534-12.127.002 9.962.007 22.634.021 23.018l-58.549 34.5-58.533-34.5c.024-.636.038-1.294.032-2-.003-.328-.006-11.719-.008-21.004zm-73.865-135.134c0-72.938 59.38-132.277 132.368-132.277s132.367 59.339 132.367 132.277c0 72.922-59.38 132.248-132.367 132.248s-132.368-59.327-132.368-132.248zm83.619 221.368c-3.165 1.504-5.746 2.073-7.107 1.563-1.143-.428-2.356-2.038-3.41-4.52l-19.328-45.774c1.922-.456 9.999-2.385 10.726-2.593l53.102 31.299zm20.953 5.064 27.801-16.382 27.809 16.391-13.41 24.664h-28.805zm60.871 93.993-17.227 29.297h-31.672l-17.238-29.272c-.04-.069-.074-.13-.104-.184.033-.106.078-.24.139-.407l19.428-53.755h27.199l19.455 53.759c.054.15.096.272.126.371-.028.056-.065.119-.106.191zm168.032 29.297h-81.083v-68.582c0-4.142-3.357-7.5-7.5-7.5s-7.5 3.358-7.5 7.5v68.582h-71.775l12.77-21.718c2.568-4.403 2.909-8.365 1.142-13.247l-20.098-55.534 13.681-25.162.661.389c.173.102.35.197.529.284 4.656 2.264 8.877 3.391 12.751 3.391 2.269 0 4.418-.386 6.467-1.157 5.179-1.947 9.193-6.229 11.932-12.72l20.326-48.077c43.569 10.613 88.913 25.123 95.994 73.875l14.325 98.455c.063.433.104.796.13 1.1-.623.067-1.508.121-2.752.121z"/></g></g></svg>